<svg width="1408" height="646" fill="none" xmlns="http://www.w3.org/2000/svg"><path d="m611 294 1.123 3.455h3.632l-2.939 2.135 1.123 3.455L611 300.91l-2.939 2.135 1.123-3.455-2.939-2.135h3.632L611 294Zm-45.5-153 1.684 5.182h5.449l-4.408 3.203 1.683 5.183-4.408-3.203-4.408 3.203 1.683-5.183-4.408-3.203h5.449L565.5 141ZM513 227l1.123 3.455h3.632l-2.939 2.135 1.123 3.455L513 233.91l-2.939 2.135 1.123-3.455-2.939-2.135h3.632L513 227Zm-12.5-56 1.684 5.182h5.449l-4.408 3.203 1.683 5.183-4.408-3.203-4.408 3.203 1.683-5.183-4.408-3.203h5.449L500.5 171Zm333 51 1.684 5.182h5.449l-4.408 3.203 1.683 5.183-4.408-3.203-4.408 3.203 1.683-5.183-4.408-3.203h5.449L833.5 222Zm-707 57 1.684 5.182h5.449l-4.408 3.203 1.683 5.183-4.408-3.203-4.408 3.203 1.683-5.183-4.408-3.203h5.449L126.5 279Zm270-164 1.684 5.182h5.449l-4.408 3.203 1.683 5.183-4.408-3.203-4.408 3.203 1.683-5.183-4.408-3.203h5.449L396.5 115ZM718 166l1.123 3.455h3.632l-2.939 2.135 1.123 3.455L718 172.91l-2.939 2.135 1.123-3.455-2.939-2.135h3.632L718 166ZM488 362l1.123 3.455h3.632l-2.939 2.135 1.123 3.455L488 368.91l-2.939 2.135 1.123-3.455-2.939-2.135h3.632L488 362Zm-172-44 1.123 3.455h3.632l-2.939 2.135 1.123 3.455L316 324.91l-2.939 2.135 1.123-3.455-2.939-2.135h3.632L316 318ZM176 469l1.123 3.455h3.632l-2.939 2.135 1.123 3.455L176 475.91l-2.939 2.135 1.123-3.455-2.939-2.135h3.632L176 469Zm292 39 1.123 3.455h3.632l-2.939 2.135 1.123 3.455L468 514.91l-2.939 2.135 1.123-3.455-2.939-2.135h3.632L468 508Zm-115-70 1.123 3.455h3.632l-2.939 2.135 1.123 3.455L353 444.91l-2.939 2.135 1.123-3.455-2.939-2.135h3.632L353 438Z" fill="#FCF9BF"/><path d="m316 318 1.123 3.455h3.632l-2.939 2.135 1.123 3.455L316 324.91l-2.939 2.135 1.123-3.455-2.939-2.135h3.632L316 318Zm874-167 1.12 3.455h3.64l-2.94 2.135 1.12 3.455-2.94-2.135-2.94 2.135 1.12-3.455-2.94-2.135h3.64L1190 151ZM399 289l1.123 3.455h3.632l-2.939 2.135 1.123 3.455L399 295.91l-2.939 2.135 1.123-3.455-2.939-2.135h3.632L399 289Zm-228 78 1.123 3.455h3.632l-2.939 2.135 1.123 3.455L171 373.91l-2.939 2.135 1.123-3.455-2.939-2.135h3.632L171 367Zm116 175 1.123 3.455h3.632l-2.939 2.135 1.123 3.455L287 548.91l-2.939 2.135 1.123-3.455-2.939-2.135h3.632L287 542Zm524-234 1.123 3.455h3.632l-2.939 2.135 1.123 3.455L811 314.91l-2.939 2.135 1.123-3.455-2.939-2.135h3.632L811 308Zm-63 171 1.123 3.455h3.632l-2.939 2.135 1.123 3.455L748 485.91l-2.939 2.135 1.123-3.455-2.939-2.135h3.632L748 479ZM83 433l1.123 3.455h3.632l-2.939 2.135 1.123 3.455L83 439.91l-2.939 2.135 1.123-3.455-2.94-2.135h3.633L83 433Zm48 181 1.123 3.455h3.632l-2.939 2.135 1.123 3.455L131 620.91l-2.939 2.135 1.123-3.455-2.939-2.135h3.632L131 614ZM636 46l1.123 3.455h3.632l-2.939 2.135 1.123 3.455L636 52.91l-2.939 2.135 1.123-3.455-2.939-2.135h3.632L636 46Zm767 344 1.12 3.455h3.64l-2.94 2.135 1.12 3.455-2.94-2.135-2.94 2.135 1.12-3.455-2.94-2.135h3.64L1403 390ZM102 168l1.123 3.455h3.632l-2.939 2.135 1.123 3.455L102 174.91l-2.939 2.135 1.123-3.455-2.94-2.135h3.633L102 168Zm156 28 1.123 3.455h3.632l-2.939 2.135 1.123 3.455L258 202.91l-2.939 2.135 1.123-3.455-2.939-2.135h3.632L258 196ZM384 0l1.123 3.455h3.632l-2.939 2.135 1.123 3.455L384 6.91l-2.939 2.135 1.123-3.455-2.939-2.135h3.632L384 0Zm121 55 1.123 3.455h3.632l-2.939 2.135 1.123 3.455L505 61.91l-2.939 2.135 1.123-3.455-2.939-2.135h3.632L505 55Z" fill="#FCF9BF"/><circle cx="206" cy="206" r="5" fill="#fff"/><circle cx="440" cy="151" r="5" fill="#fff"/><circle cx="658" cy="151" r="5" fill="#fff"/><circle cx="523" cy="367" r="5" fill="#fff"/><circle cx="1001" cy="70" r="5" fill="#fff"/><circle cx="1084" cy="286" r="5" fill="#fff"/><circle cx="829" cy="263" r="5" fill="#fff"/><circle cx="38" cy="480" r="5" fill="#fff"/><circle cx="272" cy="425" r="5" fill="#fff"/><circle cx="490" cy="425" r="5" fill="#fff"/><circle cx="355" cy="641" r="5" fill="#fff"/><circle cx="833" cy="344" r="5" fill="#fff"/><circle cx="916" cy="560" r="5" fill="#fff"/><circle cx="661" cy="537" r="5" fill="#fff"/><circle cx="500" cy="555" r="5" fill="#fff"/><circle cx="100" cy="618" r="5" fill="#fff"/><circle cx="668" cy="281" r="5" fill="#fff"/><circle cx="268" cy="344" r="5" fill="#fff"/><circle cx="107" cy="362" r="5" fill="#fff"/></svg>