<svg width="1280" height="697" fill="none" xmlns="http://www.w3.org/2000/svg"><circle cx="397" cy="141" r="5" fill="#fff"/><circle cx="631" cy="86" r="5" fill="#fff"/><circle cx="849" cy="86" r="5" fill="#fff"/><circle cx="714" cy="302" r="5" fill="#fff"/><circle cx="1192" cy="5" r="5" fill="#fff"/><circle cx="1275" cy="221" r="5" fill="#fff"/><circle cx="1020" cy="198" r="5" fill="#fff"/><circle cx="229" cy="415" r="5" fill="#fff"/><circle cx="463" cy="360" r="5" fill="#fff"/><circle cx="681" cy="360" r="5" fill="#fff"/><circle cx="546" cy="576" r="5" fill="#fff"/><circle cx="1024" cy="279" r="5" fill="#fff"/><circle cx="1107" cy="495" r="5" fill="#fff"/><circle cx="852" cy="472" r="5" fill="#fff"/><circle cx="691" cy="490" r="5" fill="#fff"/><circle cx="291" cy="553" r="5" fill="#fff"/><circle cx="130" cy="571" r="5" fill="#fff"/><circle cx="859" cy="216" r="5" fill="#fff"/><circle cx="459" cy="279" r="5" fill="#fff"/><circle cx="298" cy="297" r="5" fill="#fff"/><circle cx="885.999" cy="614.856" r="5" transform="rotate(179.607 885.999 614.856)" fill="#fff"/><circle cx="652.381" cy="671.461" r="5" transform="rotate(179.607 652.381 671.461)" fill="#fff"/><circle cx="434.387" cy="672.957" r="5" transform="rotate(179.607 434.387 672.957)" fill="#fff"/><circle cx="567.901" cy="456.035" r="5" transform="rotate(179.607 567.901 456.035)" fill="#fff"/><circle cx="7.47" cy="540.883" r="5" transform="rotate(179.607 7.47 540.883)" fill="#fff"/><circle cx="262.622" cy="562.133" r="5" transform="rotate(179.607 262.622 562.133)" fill="#fff"/><circle cx="1052.11" cy="339.71" r="5" transform="rotate(179.607 1052.11 339.71)" fill="#fff"/><circle cx="818.497" cy="396.314" r="5" transform="rotate(179.607 818.497 396.314)" fill="#fff"/><circle cx="600.502" cy="397.81" r="5" transform="rotate(179.607 600.502 397.81)" fill="#fff"/><circle cx="734.017" cy="180.889" r="5" transform="rotate(179.607 734.017 180.889)" fill="#fff"/><circle cx="258.066" cy="481.162" r="5" transform="rotate(179.607 258.066 481.162)" fill="#fff"/><circle cx="173.586" cy="265.737" r="5" transform="rotate(179.607 173.586 265.737)" fill="#fff"/><circle cx="428.738" cy="286.986" r="5" transform="rotate(179.607 428.738 286.986)" fill="#fff"/><circle cx="589.611" cy="267.882" r="5" transform="rotate(179.607 589.611 267.882)" fill="#fff"/><circle cx="989.169" cy="202.138" r="5" transform="rotate(179.607 989.169 202.138)" fill="#fff"/><circle cx="1150.04" cy="183.034" r="5" transform="rotate(179.607 1150.04 183.034)" fill="#fff"/><circle cx="423.495" cy="543.028" r="5" transform="rotate(179.607 423.495 543.028)" fill="#fff"/><circle cx="823.053" cy="477.285" r="5" transform="rotate(179.607 823.053 477.285)" fill="#fff"/><circle cx="983.926" cy="458.18" r="5" transform="rotate(179.607 983.926 458.18)" fill="#fff"/></svg>