<svg width="1408" height="646" viewBox="0 0 1408 646" fill="none" xmlns="http://www.w3.org/2000/svg">
<path d="M611 294L612.123 297.455H615.755L612.816 299.59L613.939 303.045L611 300.91L608.061 303.045L609.184 299.59L606.245 297.455H609.877L611 294Z" fill="#FCF9BF"/>
<path d="M565.5 141L567.184 146.182H572.633L568.225 149.385L569.908 154.568L565.5 151.365L561.092 154.568L562.775 149.385L558.367 146.182H563.816L565.5 141Z" fill="#FCF9BF"/>
<path d="M513 227L514.123 230.455H517.755L514.816 232.59L515.939 236.045L513 233.91L510.061 236.045L511.184 232.59L508.245 230.455H511.877L513 227Z" fill="#FCF9BF"/>
<path d="M500.5 171L502.184 176.182H507.633L503.225 179.385L504.908 184.568L500.5 181.365L496.092 184.568L497.775 179.385L493.367 176.182H498.816L500.5 171Z" fill="#FCF9BF"/>
<path d="M833.5 222L835.184 227.182H840.633L836.225 230.385L837.908 235.568L833.5 232.365L829.092 235.568L830.775 230.385L826.367 227.182H831.816L833.5 222Z" fill="#FCF9BF"/>
<path d="M126.5 279L128.184 284.182H133.633L129.225 287.385L130.908 292.568L126.5 289.365L122.092 292.568L123.775 287.385L119.367 284.182H124.816L126.5 279Z" fill="#FCF9BF"/>
<path d="M396.5 115L398.184 120.182H403.633L399.225 123.385L400.908 128.568L396.5 125.365L392.092 128.568L393.775 123.385L389.367 120.182H394.816L396.5 115Z" fill="#FCF9BF"/>
<path d="M718 166L719.123 169.455H722.755L719.816 171.59L720.939 175.045L718 172.91L715.061 175.045L716.184 171.59L713.245 169.455H716.877L718 166Z" fill="#FCF9BF"/>
<path d="M488 362L489.123 365.455H492.755L489.816 367.59L490.939 371.045L488 368.91L485.061 371.045L486.184 367.59L483.245 365.455H486.877L488 362Z" fill="#FCF9BF"/>
<path d="M316 318L317.123 321.455H320.755L317.816 323.59L318.939 327.045L316 324.91L313.061 327.045L314.184 323.59L311.245 321.455H314.877L316 318Z" fill="#FCF9BF"/>
<path d="M176 469L177.123 472.455H180.755L177.816 474.59L178.939 478.045L176 475.91L173.061 478.045L174.184 474.59L171.245 472.455H174.877L176 469Z" fill="#FCF9BF"/>
<path d="M468 508L469.123 511.455H472.755L469.816 513.59L470.939 517.045L468 514.91L465.061 517.045L466.184 513.59L463.245 511.455H466.877L468 508Z" fill="#FCF9BF"/>
<path d="M353 438L354.123 441.455H357.755L354.816 443.59L355.939 447.045L353 444.91L350.061 447.045L351.184 443.59L348.245 441.455H351.877L353 438Z" fill="#FCF9BF"/>
<path d="M316 318L317.123 321.455H320.755L317.816 323.59L318.939 327.045L316 324.91L313.061 327.045L314.184 323.59L311.245 321.455H314.877L316 318Z" fill="#FCF9BF"/>
<path d="M1190 151L1191.12 154.455H1194.76L1191.82 156.59L1192.94 160.045L1190 157.91L1187.06 160.045L1188.18 156.59L1185.24 154.455H1188.88L1190 151Z" fill="#FCF9BF"/>
<path d="M399 289L400.123 292.455H403.755L400.816 294.59L401.939 298.045L399 295.91L396.061 298.045L397.184 294.59L394.245 292.455H397.877L399 289Z" fill="#FCF9BF"/>
<path d="M171 367L172.123 370.455H175.755L172.816 372.59L173.939 376.045L171 373.91L168.061 376.045L169.184 372.59L166.245 370.455H169.877L171 367Z" fill="#FCF9BF"/>
<path d="M287 542L288.123 545.455H291.755L288.816 547.59L289.939 551.045L287 548.91L284.061 551.045L285.184 547.59L282.245 545.455H285.877L287 542Z" fill="#FCF9BF"/>
<path d="M811 308L812.123 311.455H815.755L812.816 313.59L813.939 317.045L811 314.91L808.061 317.045L809.184 313.59L806.245 311.455H809.877L811 308Z" fill="#FCF9BF"/>
<path d="M748 479L749.123 482.455H752.755L749.816 484.59L750.939 488.045L748 485.91L745.061 488.045L746.184 484.59L743.245 482.455H746.877L748 479Z" fill="#FCF9BF"/>
<path d="M83 433L84.1226 436.455H87.7553L84.8164 438.59L85.9389 442.045L83 439.91L80.0611 442.045L81.1836 438.59L78.2447 436.455H81.8774L83 433Z" fill="#FCF9BF"/>
<path d="M131 614L132.123 617.455H135.755L132.816 619.59L133.939 623.045L131 620.91L128.061 623.045L129.184 619.59L126.245 617.455H129.877L131 614Z" fill="#FCF9BF"/>
<path d="M636 46L637.123 49.4549H640.755L637.816 51.5902L638.939 55.0451L636 52.9098L633.061 55.0451L634.184 51.5902L631.245 49.4549H634.877L636 46Z" fill="#FCF9BF"/>
<path d="M1403 390L1404.12 393.455H1407.76L1404.82 395.59L1405.94 399.045L1403 396.91L1400.06 399.045L1401.18 395.59L1398.24 393.455H1401.88L1403 390Z" fill="#FCF9BF"/>
<path d="M102 168L103.123 171.455H106.755L103.816 173.59L104.939 177.045L102 174.91L99.0611 177.045L100.184 173.59L97.2447 171.455H100.877L102 168Z" fill="#FCF9BF"/>
<path d="M258 196L259.123 199.455H262.755L259.816 201.59L260.939 205.045L258 202.91L255.061 205.045L256.184 201.59L253.245 199.455H256.877L258 196Z" fill="#FCF9BF"/>
<path d="M384 0L385.123 3.45492H388.755L385.816 5.59017L386.939 9.04508L384 6.90983L381.061 9.04508L382.184 5.59017L379.245 3.45492H382.877L384 0Z" fill="#FCF9BF"/>
<path d="M505 55L506.123 58.4549H509.755L506.816 60.5902L507.939 64.0451L505 61.9098L502.061 64.0451L503.184 60.5902L500.245 58.4549H503.877L505 55Z" fill="#FCF9BF"/>
<circle cx="206" cy="206" r="5" fill="white"/>
<circle cx="440" cy="151" r="5" fill="white"/>
<circle cx="658" cy="151" r="5" fill="white"/>
<circle cx="523" cy="367" r="5" fill="white"/>
<circle cx="1001" cy="70" r="5" fill="white"/>
<circle cx="1084" cy="286" r="5" fill="white"/>
<circle cx="829" cy="263" r="5" fill="white"/>
<circle cx="38" cy="480" r="5" fill="white"/>
<circle cx="272" cy="425" r="5" fill="white"/>
<circle cx="490" cy="425" r="5" fill="white"/>
<circle cx="355" cy="641" r="5" fill="white"/>
<circle cx="833" cy="344" r="5" fill="white"/>
<circle cx="916" cy="560" r="5" fill="white"/>
<circle cx="661" cy="537" r="5" fill="white"/>
<circle cx="500" cy="555" r="5" fill="white"/>
<circle cx="100" cy="618" r="5" fill="white"/>
<circle cx="668" cy="281" r="5" fill="white"/>
<circle cx="268" cy="344" r="5" fill="white"/>
<circle cx="107" cy="362" r="5" fill="white"/>
</svg>
