<?xml version="1.0" encoding="utf-8"?><svg xmlns="http://www.w3.org/2000/svg" xmlns:xlink="http://www.w3.org/1999/xlink"><symbol fill="none" viewBox="0 0 1280 697" id="icons--letter--snow-bg" xmlns="http://www.w3.org/2000/svg"><circle cx="397" cy="141" r="5" fill="#fff"/><circle cx="631" cy="86" r="5" fill="#fff"/><circle cx="849" cy="86" r="5" fill="#fff"/><circle cx="714" cy="302" r="5" fill="#fff"/><circle cx="1192" cy="5" r="5" fill="#fff"/><circle cx="1275" cy="221" r="5" fill="#fff"/><circle cx="1020" cy="198" r="5" fill="#fff"/><circle cx="229" cy="415" r="5" fill="#fff"/><circle cx="463" cy="360" r="5" fill="#fff"/><circle cx="681" cy="360" r="5" fill="#fff"/><circle cx="546" cy="576" r="5" fill="#fff"/><circle cx="1024" cy="279" r="5" fill="#fff"/><circle cx="1107" cy="495" r="5" fill="#fff"/><circle cx="852" cy="472" r="5" fill="#fff"/><circle cx="691" cy="490" r="5" fill="#fff"/><circle cx="291" cy="553" r="5" fill="#fff"/><circle cx="130" cy="571" r="5" fill="#fff"/><circle cx="859" cy="216" r="5" fill="#fff"/><circle cx="459" cy="279" r="5" fill="#fff"/><circle cx="298" cy="297" r="5" fill="#fff"/><circle cx="885.999" cy="614.856" r="5" transform="rotate(179.607 885.999 614.856)" fill="#fff"/><circle cx="652.381" cy="671.461" r="5" transform="rotate(179.607 652.381 671.461)" fill="#fff"/><circle cx="434.387" cy="672.957" r="5" transform="rotate(179.607 434.387 672.957)" fill="#fff"/><circle cx="567.901" cy="456.035" r="5" transform="rotate(179.607 567.901 456.035)" fill="#fff"/><circle cx="7.47" cy="540.883" r="5" transform="rotate(179.607 7.47 540.883)" fill="#fff"/><circle cx="262.622" cy="562.133" r="5" transform="rotate(179.607 262.622 562.133)" fill="#fff"/><circle cx="1052.11" cy="339.71" r="5" transform="rotate(179.607 1052.11 339.71)" fill="#fff"/><circle cx="818.497" cy="396.314" r="5" transform="rotate(179.607 818.497 396.314)" fill="#fff"/><circle cx="600.502" cy="397.81" r="5" transform="rotate(179.607 600.502 397.81)" fill="#fff"/><circle cx="734.017" cy="180.889" r="5" transform="rotate(179.607 734.017 180.889)" fill="#fff"/><circle cx="258.066" cy="481.162" r="5" transform="rotate(179.607 258.066 481.162)" fill="#fff"/><circle cx="173.586" cy="265.737" r="5" transform="rotate(179.607 173.586 265.737)" fill="#fff"/><circle cx="428.738" cy="286.986" r="5" transform="rotate(179.607 428.738 286.986)" fill="#fff"/><circle cx="589.611" cy="267.882" r="5" transform="rotate(179.607 589.611 267.882)" fill="#fff"/><circle cx="989.169" cy="202.138" r="5" transform="rotate(179.607 989.169 202.138)" fill="#fff"/><circle cx="1150.04" cy="183.034" r="5" transform="rotate(179.607 1150.04 183.034)" fill="#fff"/><circle cx="423.495" cy="543.028" r="5" transform="rotate(179.607 423.495 543.028)" fill="#fff"/><circle cx="823.053" cy="477.285" r="5" transform="rotate(179.607 823.053 477.285)" fill="#fff"/><circle cx="983.926" cy="458.18" r="5" transform="rotate(179.607 983.926 458.18)" fill="#fff"/></symbol><symbol fill="none" viewBox="0 0 38 38" id="icons--main--arrow" xmlns="http://www.w3.org/2000/svg"><path d="M17.315 36.77a2.5 2.5 0 0 0 3.536-.007l15.873-15.947a2.5 2.5 0 1 0-3.544-3.527L19.07 31.462 4.897 17.355a2.5 2.5 0 0 0-3.528 3.544L17.315 36.77ZM16.5 1.007l.079 33.999 5-.012L21.5.994l-5 .012Z" fill="#fff"/></symbol><symbol fill="none" viewBox="0 0 281 197" id="icons--main--dialog" xmlns="http://www.w3.org/2000/svg"><g filter="url(#da)"><path d="m261.668 30.85-40.732 42.602-15.584-25.21 56.316-17.393Z" fill="#fff"/></g><g filter="url(#db)"><ellipse cx="122.695" cy="93.338" rx="111.484" ry="83.056" transform="rotate(-.145 122.695 93.338)" fill="#fff"/></g><defs><filter id="da" x="194.352" y="20.849" width="86.317" height="72.602" filterUnits="userSpaceOnUse" color-interpolation-filters="sRGB"><feFlood flood-opacity="0" result="BackgroundImageFix"/><feColorMatrix in="SourceAlpha" values="0 0 0 0 0 0 0 0 0 0 0 0 0 0 0 0 0 0 127 0" result="hardAlpha"/><feOffset dx="4" dy="5"/><feGaussianBlur stdDeviation="7.5"/><feColorMatrix values="0 0 0 0 1 0 0 0 0 1 0 0 0 0 1 0 0 0 0.25 0"/><feBlend in2="BackgroundImageFix" result="effect1_dropShadow_333_4"/><feBlend in="SourceGraphic" in2="effect1_dropShadow_333_4" result="shape"/></filter><filter id="db" x=".21" y=".282" width="252.969" height="196.112" filterUnits="userSpaceOnUse" color-interpolation-filters="sRGB"><feFlood flood-opacity="0" result="BackgroundImageFix"/><feColorMatrix in="SourceAlpha" values="0 0 0 0 0 0 0 0 0 0 0 0 0 0 0 0 0 0 127 0" result="hardAlpha"/><feOffset dx="4" dy="5"/><feGaussianBlur stdDeviation="7.5"/><feColorMatrix values="0 0 0 0 1 0 0 0 0 1 0 0 0 0 1 0 0 0 0.25 0"/><feBlend in2="BackgroundImageFix" result="effect1_dropShadow_333_4"/><feBlend in="SourceGraphic" in2="effect1_dropShadow_333_4" result="shape"/></filter></defs></symbol><symbol fill="none" viewBox="0 0 1408 646" id="icons--main--snow-bg" xmlns="http://www.w3.org/2000/svg"><path d="m611 294 1.123 3.455h3.632l-2.939 2.135 1.123 3.455L611 300.91l-2.939 2.135 1.123-3.455-2.939-2.135h3.632L611 294ZM565.5 141l1.684 5.182h5.449l-4.408 3.203 1.683 5.183-4.408-3.203-4.408 3.203 1.683-5.183-4.408-3.203h5.449L565.5 141ZM513 227l1.123 3.455h3.632l-2.939 2.135 1.123 3.455L513 233.91l-2.939 2.135 1.123-3.455-2.939-2.135h3.632L513 227ZM500.5 171l1.684 5.182h5.449l-4.408 3.203 1.683 5.183-4.408-3.203-4.408 3.203 1.683-5.183-4.408-3.203h5.449L500.5 171ZM833.5 222l1.684 5.182h5.449l-4.408 3.203 1.683 5.183-4.408-3.203-4.408 3.203 1.683-5.183-4.408-3.203h5.449L833.5 222ZM126.5 279l1.684 5.182h5.449l-4.408 3.203 1.683 5.183-4.408-3.203-4.408 3.203 1.683-5.183-4.408-3.203h5.449L126.5 279ZM396.5 115l1.684 5.182h5.449l-4.408 3.203 1.683 5.183-4.408-3.203-4.408 3.203 1.683-5.183-4.408-3.203h5.449L396.5 115ZM718 166l1.123 3.455h3.632l-2.939 2.135 1.123 3.455L718 172.91l-2.939 2.135 1.123-3.455-2.939-2.135h3.632L718 166ZM488 362l1.123 3.455h3.632l-2.939 2.135 1.123 3.455L488 368.91l-2.939 2.135 1.123-3.455-2.939-2.135h3.632L488 362ZM316 318l1.123 3.455h3.632l-2.939 2.135 1.123 3.455L316 324.91l-2.939 2.135 1.123-3.455-2.939-2.135h3.632L316 318ZM176 469l1.123 3.455h3.632l-2.939 2.135 1.123 3.455L176 475.91l-2.939 2.135 1.123-3.455-2.939-2.135h3.632L176 469ZM468 508l1.123 3.455h3.632l-2.939 2.135 1.123 3.455L468 514.91l-2.939 2.135 1.123-3.455-2.939-2.135h3.632L468 508ZM353 438l1.123 3.455h3.632l-2.939 2.135 1.123 3.455L353 444.91l-2.939 2.135 1.123-3.455-2.939-2.135h3.632L353 438Z" fill="#FCF9BF"/><path d="m316 318 1.123 3.455h3.632l-2.939 2.135 1.123 3.455L316 324.91l-2.939 2.135 1.123-3.455-2.939-2.135h3.632L316 318ZM1190 151l1.12 3.455h3.64l-2.94 2.135 1.12 3.455-2.94-2.135-2.94 2.135 1.12-3.455-2.94-2.135h3.64L1190 151ZM399 289l1.123 3.455h3.632l-2.939 2.135 1.123 3.455L399 295.91l-2.939 2.135 1.123-3.455-2.939-2.135h3.632L399 289ZM171 367l1.123 3.455h3.632l-2.939 2.135 1.123 3.455L171 373.91l-2.939 2.135 1.123-3.455-2.939-2.135h3.632L171 367ZM287 542l1.123 3.455h3.632l-2.939 2.135 1.123 3.455L287 548.91l-2.939 2.135 1.123-3.455-2.939-2.135h3.632L287 542ZM811 308l1.123 3.455h3.632l-2.939 2.135 1.123 3.455L811 314.91l-2.939 2.135 1.123-3.455-2.939-2.135h3.632L811 308ZM748 479l1.123 3.455h3.632l-2.939 2.135 1.123 3.455L748 485.91l-2.939 2.135 1.123-3.455-2.939-2.135h3.632L748 479ZM83 433l1.123 3.455h3.632l-2.939 2.135 1.123 3.455L83 439.91l-2.939 2.135 1.123-3.455-2.94-2.135h3.633L83 433ZM131 614l1.123 3.455h3.632l-2.939 2.135 1.123 3.455L131 620.91l-2.939 2.135 1.123-3.455-2.939-2.135h3.632L131 614ZM636 46l1.123 3.455h3.632l-2.939 2.135 1.123 3.455L636 52.91l-2.939 2.135 1.123-3.455-2.939-2.135h3.632L636 46ZM1403 390l1.12 3.455h3.64l-2.94 2.135 1.12 3.455-2.94-2.135-2.94 2.135 1.12-3.455-2.94-2.135h3.64L1403 390ZM102 168l1.123 3.455h3.632l-2.939 2.135 1.123 3.455L102 174.91l-2.939 2.135 1.123-3.455-2.94-2.135h3.633L102 168ZM258 196l1.123 3.455h3.632l-2.939 2.135 1.123 3.455L258 202.91l-2.939 2.135 1.123-3.455-2.939-2.135h3.632L258 196ZM384 0l1.123 3.455h3.632l-2.939 2.135 1.123 3.455L384 6.91l-2.939 2.135 1.123-3.455-2.939-2.135h3.632L384 0ZM505 55l1.123 3.455h3.632l-2.939 2.135 1.123 3.455L505 61.91l-2.939 2.135 1.123-3.455-2.939-2.135h3.632L505 55Z" fill="#FCF9BF"/><circle cx="206" cy="206" r="5" fill="#fff"/><circle cx="440" cy="151" r="5" fill="#fff"/><circle cx="658" cy="151" r="5" fill="#fff"/><circle cx="523" cy="367" r="5" fill="#fff"/><circle cx="1001" cy="70" r="5" fill="#fff"/><circle cx="1084" cy="286" r="5" fill="#fff"/><circle cx="829" cy="263" r="5" fill="#fff"/><circle cx="38" cy="480" r="5" fill="#fff"/><circle cx="272" cy="425" r="5" fill="#fff"/><circle cx="490" cy="425" r="5" fill="#fff"/><circle cx="355" cy="641" r="5" fill="#fff"/><circle cx="833" cy="344" r="5" fill="#fff"/><circle cx="916" cy="560" r="5" fill="#fff"/><circle cx="661" cy="537" r="5" fill="#fff"/><circle cx="500" cy="555" r="5" fill="#fff"/><circle cx="100" cy="618" r="5" fill="#fff"/><circle cx="668" cy="281" r="5" fill="#fff"/><circle cx="268" cy="344" r="5" fill="#fff"/><circle cx="107" cy="362" r="5" fill="#fff"/></symbol><symbol fill="none" viewBox="0 0 1280 697" id="icons--present-section--snow-bg" xmlns="http://www.w3.org/2000/svg"><circle cx="397" cy="141" r="5" fill="#fff"/><circle cx="631" cy="86" r="5" fill="#fff"/><circle cx="849" cy="86" r="5" fill="#fff"/><circle cx="714" cy="302" r="5" fill="#fff"/><circle cx="1192" cy="5" r="5" fill="#fff"/><circle cx="1275" cy="221" r="5" fill="#fff"/><circle cx="1020" cy="198" r="5" fill="#fff"/><circle cx="229" cy="415" r="5" fill="#fff"/><circle cx="463" cy="360" r="5" fill="#fff"/><circle cx="681" cy="360" r="5" fill="#fff"/><circle cx="546" cy="576" r="5" fill="#fff"/><circle cx="1024" cy="279" r="5" fill="#fff"/><circle cx="1107" cy="495" r="5" fill="#fff"/><circle cx="852" cy="472" r="5" fill="#fff"/><circle cx="691" cy="490" r="5" fill="#fff"/><circle cx="291" cy="553" r="5" fill="#fff"/><circle cx="130" cy="571" r="5" fill="#fff"/><circle cx="859" cy="216" r="5" fill="#fff"/><circle cx="459" cy="279" r="5" fill="#fff"/><circle cx="298" cy="297" r="5" fill="#fff"/><circle cx="885.999" cy="614.856" r="5" transform="rotate(179.607 885.999 614.856)" fill="#fff"/><circle cx="652.381" cy="671.461" r="5" transform="rotate(179.607 652.381 671.461)" fill="#fff"/><circle cx="434.387" cy="672.957" r="5" transform="rotate(179.607 434.387 672.957)" fill="#fff"/><circle cx="567.901" cy="456.035" r="5" transform="rotate(179.607 567.901 456.035)" fill="#fff"/><circle cx="7.47" cy="540.883" r="5" transform="rotate(179.607 7.47 540.883)" fill="#fff"/><circle cx="262.622" cy="562.133" r="5" transform="rotate(179.607 262.622 562.133)" fill="#fff"/><circle cx="1052.11" cy="339.71" r="5" transform="rotate(179.607 1052.11 339.71)" fill="#fff"/><circle cx="818.497" cy="396.314" r="5" transform="rotate(179.607 818.497 396.314)" fill="#fff"/><circle cx="600.502" cy="397.81" r="5" transform="rotate(179.607 600.502 397.81)" fill="#fff"/><circle cx="734.017" cy="180.889" r="5" transform="rotate(179.607 734.017 180.889)" fill="#fff"/><circle cx="258.066" cy="481.162" r="5" transform="rotate(179.607 258.066 481.162)" fill="#fff"/><circle cx="173.586" cy="265.737" r="5" transform="rotate(179.607 173.586 265.737)" fill="#fff"/><circle cx="428.738" cy="286.986" r="5" transform="rotate(179.607 428.738 286.986)" fill="#fff"/><circle cx="589.611" cy="267.882" r="5" transform="rotate(179.607 589.611 267.882)" fill="#fff"/><circle cx="989.169" cy="202.138" r="5" transform="rotate(179.607 989.169 202.138)" fill="#fff"/><circle cx="1150.04" cy="183.034" r="5" transform="rotate(179.607 1150.04 183.034)" fill="#fff"/><circle cx="423.495" cy="543.028" r="5" transform="rotate(179.607 423.495 543.028)" fill="#fff"/><circle cx="823.053" cy="477.285" r="5" transform="rotate(179.607 823.053 477.285)" fill="#fff"/><circle cx="983.926" cy="458.18" r="5" transform="rotate(179.607 983.926 458.18)" fill="#fff"/></symbol></svg>